# xmcd
#
# Track frame offsets:
#	150
#	12182
#	23865
#	37228
#	47360
#
# Disc length: 750 seconds
#
# Revision: 0
# Processed by: cddbd v1.4PL0 Copyright (c) Steve Scherf et al.
# Submitted via: dBpowerAMP V4.0
#
DISCID=3402ec05
DTITLE=salive paper - livin' like average joe
DYEAR=1900
DGENRE=
TTITLE0=what do you want?
TTITLE1=that night (it happened again)
TTITLE2=retouching the sky
TTITLE3=a vision of beauty
TTITLE4=overprotected
EXTD=
EXTT0=
EXTT1=
EXTT2=
EXTT3=
EXTT4=
PLAYORDER=
